<svg width="230" height="230" viewBox="0 0 230 230" fill="none" xmlns="http://www.w3.org/2000/svg">
<path d="M115 230C178.513 230 230 178.513 230 115C230 51.4873 178.513 0 115 0C51.4873 0 0 51.4873 0 115C0 178.513 51.4873 230 115 230Z" fill="#262535"/>
<path d="M127.046 39.6035C126.571 41.1176 124.676 42.4529 124.676 42.4529L123.726 40.2468C115.998 41.8842 110.31 43.3662 103.277 46.9215C103.366 50.7328 101.594 55.5643 101.594 55.5643L98.9369 49.1215C91.4557 53.2645 84.8331 58.7793 79.8184 66.053C80.3037 71.1901 81.2423 77.7962 81.2423 77.7962L77.7417 69.3105C73.1385 77.2336 70.3187 87.0398 70.1068 99.165C70.1068 99.165 90.0266 55.0825 142.801 41.919C142.801 41.919 75.092 62.8815 55.9127 140.06C55.9127 140.06 70.3768 110.952 72.5369 109.918C89.1758 101.94 105.98 104.81 117.475 93.7727C117.365 93.7353 117.264 93.6598 117.179 93.5183C116.412 92.2455 103.795 89.9561 103.795 89.9561L119.843 91.4051C124.208 86.8914 128.486 81.591 132.952 75.5093C129.014 72.8813 124.52 70.3384 124.52 70.3384L136.449 70.6501C140.553 64.9513 142.999 61.1963 147.688 54.2039C143.87 53.2897 138.708 52.4267 138.708 52.4267L149.369 51.6939C150.607 49.8464 151.862 47.9703 153.159 46.0368C154.035 45.2954 154.883 44.6381 155.705 44.0521C152.66 42.8991 149.559 41.9198 149.559 41.9198L158.994 42.0153C168.985 36.7601 174.781 42.4624 181.148 39.0261C181.15 39.0253 154.864 34.1373 127.046 39.6035Z" fill="#4A6BD8"/>
<path d="M56.7347 139.461C56.7347 139.461 14.8982 132.689 9.51456 127.127C2.23824 119.605 38.2379 125.229 161.729 144.533C161.729 144.533 200.966 149.011 212.068 133.857C212.068 133.857 212.585 156.56 163.759 148.883C115.661 141.321 -51.5828 109.404 56.7347 139.461Z" fill="#4A6BD8"/>
<path d="M187.26 161.046C187.26 161.046 214.337 126.002 193.058 103.716C189.734 100.236 189.108 104.75 189.108 104.75C189.108 104.75 205.831 116.445 187.26 161.046Z" fill="#4A6BD8"/>
<path d="M166.786 154.277C166.786 154.277 196.572 123.623 177.275 102.562C174.261 99.271 173.266 103.338 173.266 103.338C173.266 103.338 188.913 114.617 166.786 154.277Z" fill="#4A6BD8"/>
<path d="M154.1 128.519C154.1 128.519 203.755 142.23 220.643 109.602C223.28 104.509 217.974 105.813 217.974 105.813C217.974 105.813 211.233 128.906 154.1 128.519Z" fill="#4A6BD8"/>
<path d="M159.497 114.107C159.497 114.107 184.479 85.873 160.851 89.3883C137.225 92.9036 58.1456 159.541 82.5279 173.236C105.531 186.155 126.751 168.014 129.562 164.553C132.379 161.092 101.595 188.305 88.2059 167.213C76.4315 148.665 157.8 93.0347 163.533 93.2361C179.717 93.8039 133.645 135.509 159.497 114.107Z" fill="#4A6BD8"/>
</svg>
