<svg width="50" height="50" viewBox="0 0 50 50" fill="none" xmlns="http://www.w3.org/2000/svg">
<rect width="50" height="50" rx="25" fill="#2A2A2A"/>
<path d="M27.8281 34.2656C29.5365 31.3594 32.0208 24.5781 35.2812 13.9219C35.625 13.7031 36.0208 13.4271 36.4688 13.0938C37.4271 12.3542 38.0208 11.9844 38.25 11.9844C38.375 11.9844 38.4896 12.0938 38.5938 12.3125C38.6979 12.5208 38.75 12.75 38.75 13C38.75 13.3958 38.4115 14.3594 37.7344 15.8906C37.2552 16.9427 36.3177 19.1719 34.9219 22.5781C34.3906 23.8698 33.8125 25.2396 33.1875 26.6875C32.5729 28.125 32.1354 29.1042 31.875 29.625C31.2083 31.0312 30.3385 32.6146 29.2656 34.375C31.2031 35.2083 33.9479 35.625 37.5 35.625C37.6458 35.625 38.1771 35.6146 39.0938 35.5938C39.3958 34.6042 39.7135 32.8281 40.0469 30.2656L44.3281 28.1562C44.5573 29.3958 44.75 30.8385 44.9062 32.4844C41.8646 37.3906 37.1875 39.8438 30.875 39.8438C28.7812 39.8438 26.7969 39.5521 24.9219 38.9688C22.3281 40.0208 20.1458 40.5469 18.375 40.5469C16.0938 40.5469 13.8854 39.776 11.75 38.2344C9.61458 36.6927 8.54688 35.099 8.54688 33.4531C8.54688 33.0156 8.60417 32.4635 8.71875 31.7969L13.2812 27.9688C15.6042 31.7292 20.4531 33.8281 27.8281 34.2656ZM38.7656 15.5781L42.1094 11.3438H42.2188C43.8438 12.2917 44.6562 13.3229 44.6562 14.4375C44.6562 15 44.5469 15.8854 44.3281 17.0938C42.8802 18.7292 42.1094 19.6302 42.0156 19.7969C41.349 17.7969 40.8021 16.5833 40.375 16.1562C39.9583 15.7396 39.5573 15.5312 39.1719 15.5312C39.0781 15.5312 38.9427 15.5469 38.7656 15.5781Z" fill="#4A6BD8"/>
<path d="M17.1094 16.5156L23.0625 15.0312C24.0625 16.1562 24.9896 17.4427 25.8438 18.8906L28 15.7812C29.7917 15.9896 31.0208 16.0938 31.6875 16.0938V16.2344L29.8281 18.2969C28.8073 19.4219 27.8594 20.4219 26.9844 21.2969C28.276 22.901 29.1562 25.4688 29.625 29C27.8542 29.5417 26.5208 30.125 25.625 30.75C25.4062 29.4792 24.8125 27.9792 23.8438 26.25C23.1875 26.8542 21.8385 27.9844 19.7969 29.6406C19.2135 29.776 17.974 30.1302 16.0781 30.7031C17.651 29.2344 18.9688 27.9635 20.0312 26.8906L22.6562 24.25C21.7396 22.6458 20.8333 21.1354 19.9375 19.7188C19.0938 18.3958 18.151 17.3281 17.1094 16.5156Z" fill="#D9D9D9"/>
</svg>
